<?xml version="1.0" standalone="no"?>
<!DOCTYPE svg PUBLIC "-//W3C//DTD SVG 20010904//EN"
 "http://www.w3.org/TR/2001/REC-SVG-20010904/DTD/svg10.dtd">
<svg version="1.0" xmlns="http://www.w3.org/2000/svg"
 width="432.000000pt" height="432.000000pt" viewBox="0 0 432.000000 432.000000"
 preserveAspectRatio="xMidYMid meet">
<metadata>
Created by potrace 1.16, written by Peter Selinger 2001-2019
</metadata>
<g transform="translate(0.000000,432.000000) scale(0.100000,-0.100000)"
fill="#000000" stroke="none">
<path d="M590 2155 l0 -1575 1414 0 c1220 0 1415 2 1419 14 3 8 6 709 6 1557
0 848 3 1544 6 1547 3 3 5 11 5 19 0 11 -244 13 -1425 13 l-1425 0 0 -1575z
m1942 724 c78 -17 164 -64 228 -125 100 -96 146 -210 138 -348 -6 -103 -34
-174 -97 -253 l-49 -61 50 -48 c29 -29 64 -79 86 -123 34 -68 37 -83 40 -177
4 -85 1 -113 -18 -168 -26 -80 -86 -172 -143 -222 -53 -46 -166 -101 -236
-114 -30 -6 -220 -10 -438 -10 -412 0 -432 2 -467 51 -18 27 -21 81 -5 111 24
45 54 48 468 48 439 0 457 2 536 72 64 56 95 125 95 212 0 84 -21 134 -82 192
-24 23 -69 51 -101 64 -69 27 -97 59 -97 109 0 44 31 77 98 106 24 10 63 40
87 67 125 139 59 357 -125 408 -20 6 -196 10 -413 10 -405 0 -427 2 -461 51
-25 36 -21 92 10 122 14 14 35 28 47 30 53 10 799 6 849 -4z m-241 -507 c41
-46 40 -93 -4 -137 l-32 -32 -270 -5 c-149 -2 -284 -1 -302 4 -44 12 -73 52
-73 100 0 22 5 48 11 59 23 45 56 49 357 46 l284 -2 29 -33z m0 -480 c65 -72
17 -168 -86 -173 -16 -1 -144 -1 -283 0 l-254 1 -29 29 c-23 24 -29 38 -29 73
0 53 20 85 63 97 18 5 157 9 310 8 l279 -2 29 -33z"/>
</g>
</svg>
