<?xml version="1.0" standalone="no"?>
<!DOCTYPE svg PUBLIC "-//W3C//DTD SVG 20010904//EN"
 "http://www.w3.org/TR/2001/REC-SVG-20010904/DTD/svg10.dtd">
<svg version="1.0" xmlns="http://www.w3.org/2000/svg"
 width="516.000000pt" height="912.000000pt" viewBox="0 0 516.000000 912.000000"
 preserveAspectRatio="xMidYMid meet">
<metadata>
Created by potrace 1.16, written by Peter Selinger 2001-2019
</metadata>
<g transform="translate(0.000000,912.000000) scale(0.100000,-0.100000)"
fill="#000000" stroke="none">
<path d="M1225 8754 c-68 -16 -155 -53 -155 -66 0 -5 -4 -7 -9 -3 -6 3 -14 -3
-20 -12 -5 -10 -13 -16 -16 -14 -13 6 -85 -60 -79 -72 4 -7 3 -9 -1 -4 -9 8
-55 -30 -55 -45 0 -5 -10 -19 -21 -31 -31 -31 -88 -157 -99 -218 -6 -29 -10
-139 -10 -245 l0 -194 -195 0 c-155 0 -202 -3 -225 -15 -31 -16 -50 -43 -50
-69 0 -14 93 -16 935 -16 586 0 935 4 935 10 0 5 -5 21 -12 35 -21 46 -54 55
-198 55 -127 0 -131 1 -125 20 3 11 2 20 -4 20 -5 0 -17 7 -25 16 -14 13 -16
13 -16 1 0 -8 10 -17 22 -21 39 -10 5 -28 -61 -32 l-61 -3 0 34 c0 19 -4 35
-8 35 -4 0 -8 -12 -7 -27 0 -14 -6 -28 -12 -30 -18 -7 -28 26 -15 48 10 15 9
17 -4 12 -12 -4 -15 -15 -11 -39 5 -29 3 -34 -13 -34 -14 0 -20 9 -22 37 -2
20 -9 38 -16 39 -7 1 -8 0 -2 -3 5 -2 10 -17 10 -33 0 -20 -6 -29 -22 -34 -35
-9 -50 -7 -42 5 4 8 0 9 -15 4 -26 -8 -40 19 -23 46 10 15 9 17 -4 12 -11 -4
-15 -15 -12 -38 l4 -32 -58 0 c-62 -1 -64 1 -48 42 7 17 7 24 0 20 -6 -3 -10
-13 -10 -21 0 -17 -17 -19 -23 -1 -2 6 -2 0 0 -15 4 -25 1 -28 -22 -28 -23 0
-24 2 -15 20 13 24 -3 60 -26 60 -17 0 -34 -39 -25 -60 3 -10 7 -5 11 14 6 38
30 47 30 12 0 -26 -24 -46 -54 -46 -12 0 -16 12 -18 53 -1 35 -2 42 -5 20 -2
-18 -8 -33 -14 -33 -5 0 -9 3 -9 8 0 4 -9 18 -20 32 l-20 25 1 -45 c1 -38 2
-41 8 -15 l6 29 16 -24 c8 -14 19 -30 22 -37 6 -9 -43 -12 -199 -13 l-206 0 4
217 c4 193 7 225 26 277 69 187 221 329 405 377 69 18 140 19 1604 19 1304 0
1542 -2 1601 -15 77 -16 189 -65 226 -100 14 -13 26 -22 28 -21 2 0 19 -16 39
-36 21 -21 35 -38 33 -38 -3 0 4 -9 14 -21 11 -11 35 -51 55 -89 19 -38 37
-67 39 -65 1 2 3 -6 4 -18 0 -12 6 -60 13 -107 10 -68 12 -817 6 -3715 -7
-3932 -3 -3680 -60 -3798 -19 -41 -22 -54 -12 -67 10 -13 10 -13 -4 -3 -13 10
-18 7 -32 -16 -27 -46 -138 -144 -199 -176 -31 -16 -55 -32 -52 -36 2 -4 -5
-5 -16 -2 -11 3 -20 1 -20 -5 0 -6 -9 -8 -20 -5 -11 3 -20 0 -20 -6 0 -15
-3126 -16 -3201 0 -30 6 -92 29 -139 52 -47 23 -88 40 -93 39 -4 -1 -6 1 -5 5
1 5 -20 31 -47 58 -26 28 -60 69 -75 92 -15 23 -31 39 -35 35 -5 -4 -5 -2 -2
4 7 13 -14 64 -26 64 -5 0 -6 4 -3 8 3 5 -2 31 -10 58 -10 33 -17 113 -20 239
-3 105 -7 196 -9 202 -3 10 -55 13 -212 13 -219 0 -233 3 -270 50 -10 11 -12
218 -13 891 l0 875 31 30 30 29 220 3 c161 2 219 6 219 15 1 7 0 110 0 229
l-1 218 211 0 210 0 0 -184 0 -183 43 -8 c60 -12 59 -12 205 -14 l132 -1 -4
-32 -5 -33 14 31 c14 31 15 31 107 37 51 4 116 13 143 22 28 8 51 15 53 15 1
0 2 -9 2 -20 0 -11 5 -20 11 -20 5 0 7 5 4 10 -13 20 29 22 133 6 59 -9 119
-16 135 -16 19 0 27 -5 27 -17 1 -17 1 -17 11 0 6 10 22 17 39 17 30 0 37 8
21 25 -17 19 -22 75 -6 81 11 5 12 11 3 30 -9 20 -8 31 5 54 17 28 17 29 -4
35 -11 4 -23 4 -26 1 -4 -3 1 -6 11 -6 9 0 14 -5 11 -10 -10 -16 -35 8 -28 26
3 8 -3 24 -12 34 -10 11 -13 20 -7 20 6 0 13 -4 16 -9 10 -15 60 -20 119 -12
33 4 78 3 109 -3 40 -8 52 -8 56 2 2 6 10 12 18 12 8 0 14 9 14 20 0 11 -4 20
-10 20 -5 0 -10 -7 -10 -15 0 -8 -4 -15 -10 -15 -5 0 -10 15 -10 34 0 19 -3
42 -6 50 -5 12 -2 15 10 10 11 -4 16 -1 16 11 0 9 -4 14 -9 11 -11 -7 -23 22
-14 36 3 7 1 8 -5 4 -11 -7 -19 49 -13 94 1 8 2 34 4 56 2 41 2 42 -30 39 -18
-2 -33 1 -33 6 0 5 5 9 11 9 6 0 24 9 40 21 21 14 29 29 29 49 0 27 -2 29 -30
24 -31 -7 -43 11 -15 22 20 8 19 20 -6 45 -17 17 -19 25 -10 52 5 18 8 68 6
112 -1 44 2 88 7 98 8 16 10 16 26 0 16 -16 17 -16 20 1 2 9 -2 24 -9 32 -10
12 -10 15 0 12 8 -2 15 5 16 15 3 15 -1 18 -17 14 -17 -5 -19 -2 -16 23 3 18
0 26 -7 24 -15 -6 -38 43 -24 51 5 4 7 15 4 24 -3 10 1 24 10 31 20 17 19 36
-2 50 -14 8 -15 13 -5 17 10 4 9 9 -4 24 -16 18 -16 19 2 26 26 10 73 60 84
89 5 13 17 24 26 24 22 0 12 23 -16 37 l-24 12 26 10 c34 13 58 8 74 -14 13
-18 14 -18 15 6 1 13 3 46 4 72 4 52 -17 115 -40 124 -8 3 -15 11 -15 19 0 8
-7 14 -15 14 -8 0 -15 4 -15 8 0 11 -83 32 -129 32 -62 0 -142 -68 -178 -150
-18 -42 -26 -209 -10 -228 7 -9 7 -16 0 -23 -7 -7 -7 -24 -2 -47 14 -61 13
-62 -41 -62 -47 0 -50 -2 -50 -25 l0 -25 -935 0 -935 0 0 -173 0 -174 -53 -34
c-28 -18 -94 -62 -145 -98 l-92 -64 0 -1983 0 -1984 2580 0 2580 0 0 2315 0
2315 -27 12 c-16 6 -68 25 -118 43 l-90 33 -5 1783 c-4 1429 -8 1792 -18 1822
-19 56 -52 131 -60 137 -4 3 -16 22 -27 43 -11 22 -51 68 -89 104 -76 72 -188
132 -284 152 -37 8 -507 11 -1605 10 -1298 -1 -1562 -3 -1612 -15z m-761
-4439 c3 -8 16 -15 28 -15 33 0 68 -27 68 -53 0 -12 -9 -35 -20 -52 -11 -16
-20 -33 -20 -37 0 -5 295 -8 656 -8 564 0 655 2 645 14 -12 15 -5 24 17 20 6
-1 28 -2 47 -3 26 -1 33 -5 29 -16 -5 -13 12 -15 120 -15 l126 0 0 -95 0 -95
-935 0 -935 0 0 95 c0 78 3 95 15 95 11 0 15 12 15 51 0 74 21 105 80 120 43
11 58 10 64 -6z m1956 -54 c8 -19 8 -35 2 -48 -9 -16 -12 -44 -28 -215 -5 -57
-5 -58 20 -58 39 0 35 -40 -5 -62 -17 -10 -35 -18 -39 -18 -15 0 -71 60 -65
69 3 5 -1 12 -7 14 -7 3 3 6 22 7 19 1 30 4 23 6 -7 3 -9 12 -6 20 3 8 0 14
-6 14 -6 0 -11 9 -11 20 0 11 -6 20 -12 21 -9 0 -9 2 -2 5 14 6 6 44 -9 44 -6
0 -7 -3 -3 -7 3 -4 -8 -12 -26 -17 -28 -9 -34 -17 -36 -45 -2 -19 -9 -40 -16
-47 -10 -10 -13 0 -12 49 l1 61 37 -1 c27 0 38 4 41 18 3 11 2 19 -3 19 -7 0
-21 39 -20 57 0 5 13 8 28 8 20 0 28 5 30 23 2 12 7 20 12 17 5 -3 18 6 29 21
11 14 25 23 30 20 6 -4 8 2 6 14 -6 30 11 24 25 -9z m-80 -551 c14 4 37 2 52
-2 17 -6 34 -6 47 1 26 14 29 8 40 -90 8 -71 7 -85 -6 -95 -12 -8 -22 -8 -42
2 -14 7 -57 14 -95 16 l-68 3 6 60 c4 33 7 73 6 88 0 23 2 27 17 19 10 -5 29
-6 43 -2z"/>
<path d="M2542 8438 c-7 -7 -8 -17 -1 -30 9 -17 27 -18 272 -18 275 0 297 3
276 42 -9 17 -27 18 -272 18 -185 0 -266 -3 -275 -12z"/>
<path d="M4452 8319 l-42 -31 0 -69 0 -69 90 0 90 0 0 68 -1 67 -44 33 c-24
17 -46 32 -48 32 -2 0 -22 -14 -45 -31z"/>
<path d="M1580 8178 c-36 -4 -74 -12 -85 -17 -11 -5 -28 -12 -37 -15 -10 -3
-18 -11 -18 -19 0 -7 -17 -18 -37 -24 -30 -8 0 -11 151 -12 189 -1 189 -1 171
19 -18 19 -17 20 6 21 22 1 22 1 -5 9 -16 5 -33 7 -37 5 -12 -8 -18 22 -6 34
8 8 8 11 0 11 -7 0 -15 -5 -19 -11 -3 -6 -9 -7 -13 -2 -3 5 -35 5 -71 1z"/>
<path d="M4327 7624 c-9 -10 -9 -254 1 -254 4 1 27 18 51 40 l45 39 38 -30
c21 -17 40 -35 43 -40 19 -30 25 2 23 119 l-3 127 -95 3 c-53 1 -99 0 -103 -4z
m153 -55 c0 -21 11 -24 27 -8 7 7 11 -16 12 -81 l2 -92 -28 21 c-75 58 -68 57
-115 16 l-43 -36 -3 61 c-2 34 -1 64 1 66 2 2 18 0 35 -5 26 -8 32 -7 32 5 0
8 4 13 8 10 5 -3 19 4 31 15 21 20 21 22 4 36 -10 8 -12 12 -5 8 6 -3 12 -2
12 4 0 6 7 8 15 5 8 -4 15 -15 15 -25z"/>
<path d="M452 7374 c-48 -29 -69 -62 -77 -125 -6 -41 -5 -43 9 -25 15 19 16
18 16 -13 0 -17 7 -46 16 -63 15 -29 18 -30 29 -14 7 9 15 13 18 9 8 -13 -5
-30 -27 -34 -33 -7 -29 -27 11 -53 72 -47 160 -43 223 10 24 21 30 34 30 64 0
44 18 92 31 84 12 -7 11 1 -3 50 -6 22 -20 53 -31 69 -47 68 -166 88 -245 41z
m193 -145 c-12 -36 -26 -56 -49 -70 -17 -10 -25 -19 -19 -19 10 0 10 -6 1 -25
-13 -29 -25 -31 -50 -8 -25 23 -23 31 10 26 23 -3 24 -2 7 6 -33 15 -72 64
-82 101 -13 46 -7 60 25 61 23 2 24 2 5 6 l-22 4 21 25 c30 34 38 30 36 -16
-2 -52 6 -59 27 -23 9 15 14 21 12 13 -4 -12 3 -16 27 -17 20 0 23 1 9 4 -27
5 -27 6 -11 50 l12 33 29 -50 29 -50 -17 -51z"/>
<path d="M862 7114 c-27 -18 -29 -55 -4 -77 17 -15 73 -17 599 -17 549 0 581
1 596 18 22 25 21 48 -3 72 -20 20 -33 20 -593 20 -502 0 -575 -2 -595 -16z"/>
<path d="M4930 6353 c0 -317 4 -503 10 -503 27 0 30 54 30 498 0 443 -1 461
-20 483 -19 24 -19 23 -20 -478z"/>
<path d="M2160 6330 c0 -5 5 -10 10 -10 6 0 10 -7 10 -15 0 -8 -3 -14 -7 -14
-5 1 -106 1 -227 0 -213 -1 -218 -1 -213 -21 3 -11 1 -23 -4 -26 -5 -3 -9 4
-9 16 0 17 -5 21 -26 18 -23 -3 -27 -8 -30 -41 -5 -54 -13 -77 -28 -77 -12 0
-14 5 -18 49 -2 15 -6 17 -15 10 -9 -8 -15 0 -24 30 -7 23 -18 41 -26 41 -10
0 -13 -33 -13 -161 l0 -161 188 6 c103 4 192 7 197 7 6 0 27 -3 47 -6 61 -12
128 3 160 35 27 28 28 32 28 133 0 96 2 105 20 110 16 4 20 14 20 46 0 34 -3
41 -20 41 -11 0 -20 -4 -20 -10z"/>
<path d="M290 6161 c0 -102 3 -122 19 -142 l19 -24 -2 58 c-3 73 13 85 87 63
27 -8 36 -29 17 -41 -5 -3 -10 -10 -10 -16 0 -5 9 -4 20 3 11 7 20 20 20 30 0
28 18 30 36 3 9 -14 24 -24 32 -23 13 3 15 -7 13 -49 -2 -52 -2 -53 26 -53 16
0 35 6 41 12 10 10 17 10 33 0 31 -19 40 -3 40 68 -1 83 36 68 44 -18 2 -29 0
-54 -6 -57 -5 -4 -9 -68 -9 -144 0 -131 6 -161 32 -161 4 0 9 69 10 153 2 120
3 99 8 -103 6 -289 2 -309 -57 -310 -20 0 -23 5 -23 40 0 32 -4 40 -19 40 -14
0 -17 -6 -13 -25 6 -32 -18 -42 -58 -25 -33 14 -36 20 -18 38 9 9 2 12 -35 12
-46 0 -47 0 -47 -32 0 -18 -9 -48 -20 -66 -20 -32 -27 -72 -12 -72 4 0 15 14
24 30 18 32 55 41 65 15 3 -9 -2 -24 -11 -34 -9 -10 -16 -21 -16 -24 0 -12 30
-7 55 9 29 19 55 12 55 -15 0 -12 -14 -26 -37 -37 -38 -19 -32 -19 531 -22
468 -2 572 0 585 11 30 26 51 28 51 7 0 -45 69 -12 70 33 0 15 -5 17 -35 11
-40 -7 -65 7 -65 37 0 11 -6 19 -14 19 -8 0 -17 4 -21 10 -9 15 32 50 59 50
17 0 30 10 45 35 l20 35 -28 0 c-16 0 -31 -7 -35 -15 -3 -8 -10 -15 -16 -15
-5 0 -10 7 -10 15 0 13 -22 15 -137 16 l-138 0 60 20 c33 10 89 29 125 41 64
23 73 23 600 25 294 1 549 2 565 2 26 1 39 14 95 88 36 47 67 90 68 95 2 4
-393 8 -877 8 l-881 0 0 -140 0 -140 -82 -1 c-46 0 -77 -3 -70 -6 6 -2 12 -9
12 -14 0 -12 -102 0 -111 13 -3 5 -19 8 -35 6 -16 -1 -53 -1 -81 0 l-53 2 0
240 0 240 40 0 c38 0 40 1 41 33 2 27 2 28 6 7 3 -14 9 -29 14 -34 5 -6 9 52
9 147 l0 157 -305 0 -305 0 0 -119z"/>
<path d="M1095 6160 c-17 -17 -23 -28 -13 -25 9 4 19 1 23 -4 3 -6 11 -8 17
-5 7 4 8 2 4 -4 -4 -7 -3 -19 2 -29 11 -19 -11 -81 -35 -99 -25 -17 -1 -22
120 -22 95 -1 108 1 117 18 7 13 6 22 -3 32 -8 7 -12 19 -9 26 2 6 -1 12 -7
12 -6 0 -8 7 -5 15 4 8 1 15 -5 15 -6 0 -11 -4 -11 -8 0 -4 -16 -6 -35 -4 -19
2 -35 8 -35 12 0 5 -10 10 -22 12 -13 2 -23 10 -23 18 -1 22 -15 41 -26 35 -5
-4 -13 3 -17 15 -7 20 -9 20 -37 -10z"/>
<path d="M3449 5742 c-52 -62 -220 -185 -194 -142 3 6 1 10 -4 10 -6 0 -11 -4
-11 -10 0 -5 -7 -7 -16 -3 -13 5 -13 7 -2 14 9 6 6 9 -12 11 -14 1 -34 2 -45
3 -11 1 -28 3 -39 4 -14 1 -17 7 -13 26 4 24 3 25 -17 12 -11 -8 -39 -36 -61
-63 -22 -27 -45 -51 -50 -54 -6 -3 -9 -11 -9 -17 1 -7 -4 -13 -11 -13 -15 0
-70 -69 -62 -77 9 -9 27 7 27 24 0 13 3 13 15 3 13 -11 13 -15 3 -21 -10 -6
-10 -9 -1 -9 7 0 18 10 24 22 11 21 12 21 26 2 14 -17 16 -18 26 -3 10 15 12
15 28 -5 10 -11 18 -16 19 -10 0 17 -26 65 -36 65 -5 1 -16 5 -24 11 -12 8
-12 9 2 4 10 -3 20 -1 24 5 3 6 11 3 18 -7 12 -16 13 -16 20 1 6 16 9 15 31
-9 14 -15 25 -23 25 -18 0 5 9 12 20 15 33 8 23 27 -15 27 -38 0 -42 4 -22 24
11 11 16 11 32 0 25 -19 54 -18 62 2 5 13 23 14 124 10 179 -8 678 -8 922 0
l217 7 0 94 0 93 -499 0 -498 0 -24 -28z"/>
<path d="M3216 5549 c-9 -11 -16 -23 -16 -27 0 -4 -9 -13 -20 -19 -21 -14 -55
-72 -46 -80 3 -3 19 5 36 17 22 16 34 19 39 12 10 -17 67 -26 75 -13 4 6 16
11 27 11 10 0 19 7 19 15 0 8 5 15 10 15 6 0 9 -6 8 -12 -3 -15 44 -19 82 -7
23 7 23 7 3 8 -31 1 -54 12 -47 22 3 5 -2 9 -10 9 -9 0 -16 8 -17 18 0 10 -3
12 -6 5 -7 -18 -33 -16 -33 2 0 9 -9 15 -25 15 -14 0 -25 4 -25 9 0 18 -38 18
-54 0z"/>
<path d="M3495 5549 c-6 -9 16 -44 40 -61 27 -20 134 0 120 23 -4 5 -1 9 4 9
6 0 11 -5 11 -11 0 -7 13 -9 38 -5 20 3 52 6 70 6 21 -1 31 3 27 10 -3 5 -24
10 -46 10 -21 0 -39 4 -39 9 0 15 -61 21 -104 10 -29 -8 -41 -8 -44 0 -5 14
-69 14 -77 0z"/>
<path d="M4210 5383 c-8 -3 -18 -10 -21 -15 -4 -6 -238 -10 -603 -11 -639 0
-631 0 -605 -49 7 -12 13 -38 15 -56 2 -29 1 -32 -14 -20 -14 11 -15 10 -7 -7
5 -11 12 -49 15 -85 l7 -65 1 66 2 67 116 12 c116 13 269 10 459 -9 50 -4 223
-7 385 -5 300 3 435 -7 492 -37 17 -9 18 -4 18 100 l0 109 -73 0 c-41 0 -96 2
-123 5 -27 3 -56 3 -64 0z"/>
<path d="M2458 5363 l-298 -3 0 -55 c0 -44 5 -60 23 -77 21 -22 28 -23 230
-23 l207 0 75 75 c68 68 88 94 68 88 -5 -2 -142 -4 -305 -5z"/>
<path d="M290 4879 l0 -179 859 0 c472 0 863 0 868 -1 4 -1 38 -1 75 0 l67 1
0 180 0 180 -934 0 -934 -1 -1 -180z"/>
<path d="M3118 4980 c-9 -6 -37 -9 -62 -7 -30 3 -53 -1 -67 -11 -30 -21 -49
-71 -38 -100 10 -26 -5 -105 -26 -138 -12 -18 -11 -23 1 -35 8 -8 15 -38 16
-67 3 -63 15 -77 64 -68 40 8 64 -5 64 -35 0 -10 -8 -23 -17 -28 -15 -9 -12
-10 16 -11 18 0 61 -7 95 -16 78 -20 188 -12 219 17 l21 19 -22 23 c-26 28
-27 38 -6 96 32 94 -8 247 -83 316 -48 44 -137 67 -175 45z"/>
<path d="M3825 4883 c-38 -10 -75 -44 -100 -94 -23 -46 -24 -53 -11 -77 8 -15
18 -58 24 -96 7 -44 18 -76 31 -90 12 -12 21 -28 21 -34 0 -16 45 -33 65 -26
20 8 30 -22 17 -51 -10 -20 -20 -25 -81 -31 -39 -3 -83 -15 -100 -25 -29 -17
-34 -31 -44 -109 -2 -10 -16 -16 -45 -18 l-42 -3 0 -43 c0 -51 -37 -146 -56
-146 -8 0 -14 -8 -15 -17 0 -15 -2 -14 -9 3 -10 25 -37 38 -44 21 -2 -7 -5 -4
-5 6 -1 9 6 17 14 17 9 0 15 10 15 26 0 14 -4 23 -10 19 -14 -9 -12 5 5 35 8
14 14 32 14 40 1 24 -56 -73 -85 -145 -15 -36 -36 -73 -48 -83 -13 -9 -26 -29
-29 -44 -4 -15 -16 -29 -26 -33 -11 -3 -20 -14 -20 -23 0 -9 -3 -36 -6 -58 -7
-40 -6 -42 24 -52 21 -8 31 -17 31 -32 0 -11 7 -31 14 -43 14 -21 29 -76 28
-107 0 -8 6 -37 13 -65 14 -53 27 -117 31 -150 8 -63 -38 -113 -94 -100 -49
10 -72 45 -74 113 0 31 -18 28 -18 -4 0 -54 -22 -114 -44 -119 -36 -9 -146 11
-146 27 0 5 -5 6 -12 2 -7 -5 -8 -3 -4 5 5 8 -4 23 -23 40 -18 16 -33 38 -36
50 -2 11 -6 25 -10 30 -3 5 7 11 22 13 22 2 29 9 31 31 2 15 -1 27 -7 27 -6 0
-11 -9 -11 -20 0 -24 0 -24 -36 -5 -20 10 -24 15 -11 15 15 0 16 3 7 20 -9 16
-8 22 5 26 14 6 14 8 -1 25 -13 14 -14 24 -6 51 5 18 10 44 10 58 1 14 6 26
12 28 5 2 10 9 10 16 0 26 26 65 48 71 21 5 32 25 13 25 -5 0 -7 9 -4 20 3 11
0 26 -6 34 -7 8 -11 18 -9 22 1 5 -3 18 -9 30 -14 25 -6 64 13 64 18 0 18 16
0 23 -11 4 -12 14 -6 42 4 20 5 48 0 63 l-7 27 -6 -35 c-16 -88 -27 -183 -27
-223 0 -25 -15 -86 -36 -143 -70 -196 -124 -358 -124 -375 0 -10 -5 -30 -12
-44 -13 -30 -8 -37 29 -40 16 -1 73 -7 128 -13 157 -17 194 -20 200 -14 9 9
193 2 250 -9 27 -6 68 -12 89 -15 22 -3 94 -19 160 -36 67 -16 144 -31 173
-33 28 -2 61 -9 73 -15 18 -10 24 -9 31 1 7 11 9 10 9 -4 0 -17 2 -17 26 2 15
11 31 18 37 14 6 -4 3 -10 -9 -15 -18 -8 -17 -8 2 -5 12 3 29 0 40 -6 10 -6
32 -11 48 -13 17 -1 32 -7 34 -13 2 -6 20 -11 40 -12 21 0 31 -3 25 -6 -31
-12 -8 -22 50 -22 34 0 75 -4 90 -10 16 -6 33 -8 39 -5 7 4 8 2 4 -4 -4 -7 -1
-13 6 -14 26 -3 33 -5 61 -18 28 -14 28 -14 7 -22 -25 -9 -18 -28 10 -28 18 0
20 -10 23 -142 1 -79 4 175 5 565 l2 707 -37 2 c-100 5 -117 3 -140 -16 l-25
-19 15 30 c19 36 43 57 51 45 3 -6 29 -8 56 -5 32 3 56 0 65 -7 13 -11 15 -1
15 71 l0 84 -57 -3 -58 -3 30 26 c80 69 73 67 78 26 2 -20 4 2 4 49 0 47 -2
75 -4 63 -4 -19 -8 -21 -24 -13 -13 7 -19 7 -19 0 0 -5 -7 -10 -16 -10 -10 0
-14 6 -10 18 3 9 9 36 14 59 6 23 21 52 36 66 19 18 26 34 26 61 l0 37 -21
-20 c-11 -10 -30 -21 -42 -24 -68 -17 -132 -47 -143 -69 -19 -33 -17 -44 4
-26 9 9 23 13 30 11 6 -3 12 2 12 10 0 11 7 13 21 10 21 -6 20 -7 -6 -21 -16
-8 -33 -19 -39 -23 -56 -47 -108 -80 -134 -85 -30 -6 -33 -4 -47 29 -20 48
-21 46 23 64 20 9 32 18 25 20 -7 2 -21 -1 -32 -7 -14 -7 -21 -7 -21 0 0 5 4
10 8 10 5 0 30 20 55 45 26 25 56 45 66 45 10 0 38 11 63 25 24 13 59 26 78
29 74 11 95 21 98 49 4 31 -4 33 -34 12 -36 -25 -133 -57 -146 -48 -7 4 -24 8
-37 8 -20 0 -26 8 -38 49 -8 26 -13 50 -10 52 2 2 19 -1 38 -6 18 -6 42 -10
51 -10 26 0 22 18 -4 22 l-23 3 24 24 24 24 -36 -6 c-20 -3 -39 -2 -41 2 -3 4
-34 6 -70 4 -36 -1 -66 2 -66 6 0 5 -32 20 -71 35 -67 25 -149 32 -204 19z
m323 -583 c33 0 43 -76 30 -222 -10 -113 -14 -128 -30 -128 -22 0 -68 -38 -68
-57 0 -7 -9 -13 -19 -13 -11 0 -23 -4 -26 -10 -3 -5 -16 -11 -28 -11 -17 -1
-18 -2 -4 -6 40 -11 8 -40 -45 -40 -25 -1 -38 3 -38 12 0 8 -6 20 -12 27 -34
37 -38 56 -22 98 16 40 18 41 60 39 33 -2 45 -7 50 -21 5 -16 14 -18 57 -16
50 3 52 4 55 33 2 17 8 34 13 40 5 5 9 60 9 122 0 86 -3 114 -14 120 -13 7
-20 33 -17 57 0 5 9 2 19 -7 10 -10 24 -17 30 -17z m-393 -50 c4 -6 14 -9 23
-8 23 4 52 -56 52 -107 0 -51 -22 -129 -28 -100 -2 11 -10 24 -18 28 -8 4 -14
14 -14 22 0 10 -9 12 -34 8 l-34 -5 9 48 c4 27 8 56 7 64 -3 37 3 60 16 60 8
0 18 -5 21 -10z m-121 -482 c15 -34 28 -83 66 -248 26 -113 49 -161 90 -190
16 -12 55 -42 85 -68 l55 -47 143 0 c125 1 147 4 183 22 22 12 46 33 52 48 12
26 34 30 38 7 1 -7 0 -8 -3 -2 -7 15 -23 12 -23 -5 0 -8 8 -15 18 -15 10 0 28
-9 40 -20 12 -12 22 -17 22 -11 0 5 7 11 15 15 9 3 15 0 15 -8 0 -22 -35 -25
-76 -5 -47 22 -44 22 -68 4 -20 -15 -20 -15 0 -29 10 -8 29 -12 41 -9 25 6
113 -40 113 -58 0 -6 -7 -9 -15 -5 -8 3 -25 1 -37 -4 -21 -8 -20 -9 10 -9 43
-1 41 -18 -2 -23 -19 -2 -34 1 -33 6 1 5 -6 12 -15 14 -13 2 -16 -1 -12 -11 3
-8 0 -18 -7 -23 -7 -4 -10 -3 -5 4 3 6 2 13 -4 17 -5 3 -10 -1 -10 -9 0 -21
-4 -20 -53 8 -102 58 -160 87 -170 83 -5 -1 13 -18 42 -36 28 -18 51 -34 51
-35 0 -1 -24 1 -52 4 -29 3 -70 5 -90 5 -21 0 -38 3 -38 7 0 6 -57 38 -68 38
-2 0 1 -7 8 -15 26 -31 2 -25 -27 7 -16 18 -37 39 -46 47 -28 22 -19 -2 14
-37 17 -18 28 -36 25 -39 -3 -4 -28 18 -55 48 -48 53 -75 61 -53 16 14 -29 25
-67 18 -67 -9 0 -56 86 -56 103 0 10 -7 17 -15 17 -16 0 -65 70 -65 93 0 7
-11 37 -25 65 -14 29 -25 55 -25 59 0 9 -35 102 -55 148 -8 17 -26 56 -40 88
-34 74 -29 87 34 87 47 0 51 -2 65 -32z m-216 -41 c77 -135 118 -361 77 -424
-9 -14 -15 -26 -13 -27 6 -5 173 -36 194 -36 11 0 29 -7 40 -16 18 -14 15 -15
-31 -8 -27 3 -92 12 -143 18 l-94 11 1 175 c2 163 0 181 -23 249 -14 40 -32
81 -40 90 -18 19 -21 36 -7 26 6 -3 23 -29 39 -58z"/>
<path d="M2851 4421 c-24 -21 -40 -73 -41 -133 0 -40 -8 -68 -19 -68 -4 0 -6
39 -4 86 4 84 -7 107 -22 47 -3 -15 -17 -39 -30 -54 -13 -16 -33 -59 -44 -96
-12 -37 -29 -89 -37 -115 -9 -26 -21 -85 -28 -130 -10 -69 -15 -83 -29 -80
-13 2 -17 -4 -17 -27 0 -20 -6 -31 -17 -34 -15 -4 -16 -5 -2 -6 10 0 19 -12
22 -27 4 -22 0 -28 -31 -41 -37 -15 -34 -29 8 -35 24 -3 24 -5 24 -83 -2 -154
-19 -253 -51 -299 -36 -51 -73 -60 -91 -22 -12 28 -7 56 11 56 7 0 7 4 -1 12
-7 7 -12 20 -12 29 0 38 -43 33 -48 -6 -9 -70 -25 -141 -33 -150 -13 -13 -11
-25 4 -25 7 0 50 -18 95 -40 62 -30 85 -46 93 -67 8 -20 13 -24 17 -13 3 8 11
19 18 23 8 4 14 15 14 23 0 22 67 149 90 169 11 10 17 21 15 26 -3 4 10 20 29
36 30 25 35 35 41 93 17 160 45 286 76 343 l31 58 2 219 c1 168 -2 221 -11
225 -17 6 -16 64 1 98 17 32 8 35 -23 8z m-147 -845 c26 -72 27 -75 12 -131
-8 -31 -22 -66 -31 -78 -46 -63 -73 -110 -70 -120 3 -7 -7 -20 -21 -30 -20
-15 -28 -16 -39 -7 -12 10 -10 18 19 51 18 22 49 79 67 127 29 75 34 99 34
175 0 48 1 87 1 87 1 0 13 -33 28 -74z"/>
<path d="M1124 2756 c-148 -69 -174 -265 -50 -374 111 -97 284 -63 350 69 97
196 -101 398 -300 305z"/>
<path d="M655 2199 c-67 -59 -66 -152 3 -209 l37 -30 525 0 c503 0 526 1 557
20 40 24 63 67 63 117 0 50 -18 82 -59 110 l-34 23 -528 0 -528 0 -36 -31z"/>
<path d="M4333 2145 c-11 -8 -13 -38 -11 -134 l3 -123 49 40 c54 45 48 46 116
-12 l35 -30 3 124 c1 68 -1 127 -6 132 -13 13 -172 15 -189 3z m150 -56 c3
-12 11 -17 20 -13 12 4 15 -10 16 -82 l2 -87 -45 36 c-24 21 -47 37 -51 37 -4
0 -27 -16 -51 -36 l-44 -36 0 66 c0 60 9 81 24 57 8 -13 48 -1 43 13 -3 7 6
11 22 11 21 0 26 5 27 25 1 37 3 40 18 34 8 -3 16 -14 19 -25z"/>
<path d="M675 1892 c-39 -24 -54 -43 -65 -83 -14 -48 4 -101 45 -138 l36 -31
528 0 528 0 34 23 c41 28 59 60 59 110 0 50 -23 93 -63 117 -31 19 -54 20
-552 20 -487 0 -522 -1 -550 -18z"/>
</g>
</svg>
